<?xml version="1.0" encoding="UTF-8" standalone="no"?>
<!-- Created with Inkscape (http://www.inkscape.org/) -->

<svg
   width="1080"
   height="1080"
   viewBox="0 0 1080 1080"
   version="1.1"
   id="svg1"
   xml:space="preserve"
   xmlns="http://www.w3.org/2000/svg"
   xmlns:svg="http://www.w3.org/2000/svg"><defs
     id="defs1" /><g
     id="layer1"><circle
       style="fill:#8a95dd;fill-opacity:1;stroke-width:6.5111"
       id="path12"
       cx="538.46747"
       cy="245.97734"
       r="204.69838" /><rect
       style="fill:#8a95dd;fill-opacity:1;stroke-width:5.92886"
       id="rect12"
       width="172.37758"
       height="527.04443"
       x="452.27609"
       y="318.69089" /><path
       d="m 460.27198,797.13748 -100.10409,166.79368 -180.86328,-3.22345 -2.45557,86.16769 231.19834,4.1183 0.29134,0.179 125.26539,-208.71534 z"
       style="fill:#8a95dd;stroke-width:5.30829"
       id="path3" /><path
       d="m 461.57169,443.61608 -277.35268,14.25272 0.0125,0.11237 -0.0437,-0.0229 -121.586184,233.29807 63.172704,32.69032 94.58323,-181.48549 251.40269,-12.91881 z"
       style="fill:#8a95dd;stroke-width:5.68058"
       id="path1" /><path
       d="m 618.42831,531.9138 277.35268,-14.25272 -0.0125,-0.11238 0.0437,0.0229 121.58621,-233.29806 -63.17273,-32.69032 -94.58323,181.48549 -251.40269,12.9188 z"
       style="fill:#8a95dd;stroke-width:5.68058"
       id="path2" /><path
       d="m 842.73445,1062.9131 -63.61789,-183.83078 -177.65192,-34.08387 15.33826,-84.82712 227.09277,43.57182 0.32196,-0.11517 79.60878,230.03462 z"
       style="fill:#8a95dd;stroke-width:5.30829"
       id="path4" /></g></svg>
