<?xml version="1.0" encoding="UTF-8" standalone="no"?>
<!-- Created with Inkscape (http://www.inkscape.org/) -->

<svg
   width="16"
   height="16"
   viewBox="0 0 16 16"
   version="1.1"
   id="svg1"
   xml:space="preserve"
   xmlns="http://www.w3.org/2000/svg"
   xmlns:svg="http://www.w3.org/2000/svg"><defs
     id="defs1" /><g
     id="layer1"><g
       id="g1"
       transform="matrix(0.01524817,0,0,0.01524817,-0.23401212,-0.23401178)"><path
         id="ellipse22"
         style="fill:#8a95dd;fill-opacity:1;stroke-width:1.6235"
         d="M 522.03668,232.51967 A 373.13571,224.62031 0 0 0 150.57932,441.71842 156.66612,217.00376 16.315603 0 0 41.62855,590.60414 a 156.66612,217.00376 16.315603 0 0 89.39607,252.27662 156.66612,217.00376 16.315603 0 0 211.31911,-164.25282 156.66612,217.00376 16.315603 0 0 5.75905,-23.2111 373.13571,224.62031 0 0 0 173.9339,26.34296 373.13571,224.62031 0 0 0 207.81098,-38.63796 217.00376,156.66612 73.684397 0 0 7.80861,35.5061 217.00376,156.66612 73.684397 0 0 211.31909,164.2528 217.00376,156.66612 73.684397 0 0 89.39614,-252.27661 217.00376,156.66612 73.684397 0 0 -146.80527,-164.483 373.13571,224.62031 0 0 0 -369.52955,-193.60146 z" /><ellipse
         style="fill:#000000;fill-opacity:1;stroke-width:1.93514"
         id="path23"
         cx="740.04626"
         cy="392.72046"
         rx="31.543676"
         ry="32.805424" /><ellipse
         style="fill:#000000;fill-opacity:1;stroke-width:1.93514"
         id="ellipse23"
         cx="800.61017"
         cy="443.19037"
         rx="31.543676"
         ry="32.805424" /><ellipse
         style="fill:#000000;fill-opacity:1;stroke-width:1.93514"
         id="ellipse24"
         cx="742.56982"
         cy="501.23071"
         rx="31.543676"
         ry="32.805424" /><ellipse
         style="fill:#000000;fill-opacity:1;stroke-width:1.93514"
         id="ellipse25"
         cx="674.43542"
         cy="445.71387"
         rx="31.543676"
         ry="32.805424" /><ellipse
         style="fill:#000000;fill-opacity:1;stroke-width:1.41021"
         id="path25"
         cx="631.14587"
         cy="572.83453"
         rx="49.652298"
         ry="50.571785" /><path
         id="rect26"
         style="fill:#000000;fill-opacity:1;stroke-width:1.49325"
         d="m 303.99423,391.44704 v 50.6304 h -50.63036 v 25.31231 h 50.63036 v 50.63028 h 25.31226 v -50.63028 h 50.63037 v -25.31231 h -50.63037 v -50.6304 z" /><path
         d="m 450.59963,279.72179 v 146.05273 h 35.20899 V 320.48155 l 10.56836,12.66797 16.89062,20.24609 0.10547,0.0879 0.0254,-0.0215 16.94531,-20.31055 10.59961,-12.70703 v 105.33008 h 35.20899 V 279.72179 h -35.16407 -0.0371 l -0.008,0.01 -27.58398,33.0625 -27.55078,-33.02148 -0.041,-0.0508 h -0.0137 z"
         id="path30" /><ellipse
         style="fill:#000000;fill-opacity:1;stroke-width:1.41021"
         id="ellipse30"
         cx="411.25986"
         cy="572.83453"
         rx="49.652298"
         ry="50.571785" /></g></g></svg>
