<?xml version="1.0" encoding="UTF-8" standalone="no"?>
<!-- Created with Inkscape (http://www.inkscape.org/) -->

<svg
   width="16"
   height="16"
   viewBox="0 0 16 16"
   version="1.1"
   id="svg1"
   xml:space="preserve"
   xmlns="http://www.w3.org/2000/svg"
   xmlns:svg="http://www.w3.org/2000/svg"><defs
     id="defs1" /><g
     id="layer1"><rect
       style="fill:#8a95dd;fill-opacity:1;stroke-width:0.0127529"
       id="rect7"
       width="7.0123248"
       height="1.7273006"
       x="0.38195586"
       y="11.085642" /><rect
       style="fill:#8a95dd;fill-opacity:1;stroke-width:0.0155807"
       id="rect8"
       width="7.966208"
       height="2.0108874"
       x="7.9418063"
       y="6.8712263" /><rect
       style="fill:#8a95dd;fill-opacity:1;stroke-width:0.0155807"
       id="rect9"
       width="0.51561219"
       height="1.4437141"
       x="2.0319147"
       y="9.6934891" /><path
       style="fill:#8a95dd;fill-opacity:1"
       id="path9"
       d="m 179.88101,704.06245 -67.36479,0 -67.364794,0 33.682397,-58.33962 33.682397,-58.33962 33.6824,58.33962 z"
       transform="matrix(0.0155807,0,0,0.0155807,0.53663951,-1.1601471)" /><path
       id="rect10"
       style="fill:#8a95dd;fill-opacity:1;stroke-width:0.0155807"
       d="M 2.2639375,7.0635782 1.7391539,7.9725539 1.21434,8.8815294 H 1.7759755 L 1.7649291,8.9006706 1.2401455,9.8096462 H 2.0319008 V 11.137201 H 2.5475246 V 9.8096462 H 3.3393102 L 2.8145265,8.9006706 2.8034801,8.8815294 h 0.510055 L 2.788721,7.9725539 Z" /><path
       id="path11"
       style="fill:#8a95dd;fill-opacity:1;stroke-width:0.0155807"
       d="m 13.922905,3.003847 -0.524783,0.9089757 -0.524814,0.9089755 h 0.561635 l -0.01105,0.019141 -0.524784,0.9089756 h 0.791755 v 1.3275548 h 0.515624 V 5.749915 h 0.791786 L 14.47349,4.8409394 14.46244,4.8217984 h 0.510055 L 14.447689,3.9128227 Z" /><g
       id="g1"><circle
         style="fill:#8a95dd;fill-opacity:1;stroke-width:0.0155807"
         id="path12"
         cx="5.1255879"
         cy="4.4600258"
         r="0.48983157" /><rect
         style="fill:#8a95dd;fill-opacity:1;stroke-width:0.0155807"
         id="rect12"
         width="0.41248974"
         height="1.5210559"
         x="4.8420014"
         y="4.846735" /><rect
         style="fill:#8a95dd;fill-opacity:1;stroke-width:0.0110172"
         id="rect15"
         width="0.43827033"
         height="0.20624487"
         x="5.1878214"
         y="6.1614418" /><rect
         style="fill:#8a95dd;fill-opacity:1;stroke-width:0.0110172"
         id="rect16"
         width="0.4382703"
         height="0.20624486"
         x="7.4292736"
         y="-3.8317602"
         transform="rotate(75.000006)" /><rect
         style="fill:#8a95dd;fill-opacity:1;stroke-width:0.0110172"
         id="rect17"
         width="0.43827036"
         height="0.20624487"
         x="4.6802244"
         y="-6.612113"
         transform="rotate(106.29094)" /><rect
         style="fill:#8a95dd;fill-opacity:1;stroke-width:0.0110172"
         id="rect18"
         width="0.43827048"
         height="0.20624493"
         x="-5.04041"
         y="-6.6475019"
         transform="rotate(-178.70906)" /><rect
         style="fill:#8a95dd;fill-opacity:1;stroke-width:0.0110045"
         id="rect19"
         width="0.52982932"
         height="0.17020904"
         x="2.2762175"
         y="-7.2948995"
         transform="matrix(-0.38040583,0.92481966,-0.9246559,-0.38080371,0,0)" /><rect
         style="fill:#8a95dd;fill-opacity:1;stroke-width:0.0110172"
         id="rect20"
         width="0.4382703"
         height="0.20624486"
         x="-5.239327"
         y="-5.8067112"
         transform="rotate(175.53677)" /><rect
         style="fill:#8a95dd;fill-opacity:1;stroke-width:0.0110045"
         id="rect21"
         width="0.52982932"
         height="0.17020904"
         x="-3.6389403"
         y="6.0734377"
         transform="matrix(0.38040583,-0.92481966,0.9246559,0.38080371,0,0)" /><rect
         style="fill:#8a95dd;fill-opacity:1;stroke-width:0.0110172"
         id="rect22"
         width="0.4382703"
         height="0.20624486"
         x="4.0190969"
         y="5.5092492"
         transform="rotate(-4.4632334)" /></g></g></svg>
